<svg xmlns="http://www.w3.org/2000/svg" xmlns:xlink="http://www.w3.org/1999/xlink" version="1.1" width="256" height="256" viewBox="0 0 256 256" xml:space="preserve">

<defs>
</defs>
<g style="stroke: none; stroke-width: 0; stroke-dasharray: none; stroke-linecap: butt; stroke-linejoin: miter; stroke-miterlimit: 10; fill: none; fill-rule: nonzero; opacity: 1;" transform="translate(1.4065934065934016 1.4065934065934016) scale(2.81 2.81)" >
	<path d="M 63.429 0 H 26.571 C 11.896 0 0 11.896 0 26.571 v 36.858 C 0 78.104 11.896 90 26.571 90 h 36.858 C 78.104 90 90 78.104 90 63.429 V 26.571 C 90 11.896 78.104 0 63.429 0 z M 45 66.458 c -11.851 0 -21.458 -9.607 -21.458 -21.458 c 0 -11.851 9.607 -21.458 21.458 -21.458 S 66.458 33.149 66.458 45 C 66.458 56.851 56.851 66.458 45 66.458 z M 69.047 25.662 c -2.586 0 -4.683 -2.097 -4.683 -4.683 c 0 -2.586 2.097 -4.683 4.683 -4.683 c 2.586 0 4.683 2.097 4.683 4.683 C 73.73 23.565 71.634 25.662 69.047 25.662 z" style="stroke: none; stroke-width: 1; stroke-dasharray: none; stroke-linecap: butt; stroke-linejoin: miter; stroke-miterlimit: 10; fill: rgb(0,0,0); fill-rule: nonzero; opacity: 1;" transform=" matrix(1 0 0 1 0 0) " stroke-linecap="round" />
	<path d="M 63.429 4 C 75.875 4 86 14.125 86 26.571 v 36.858 C 86 75.875 75.875 86 63.429 86 H 26.571 C 14.125 86 4 75.875 4 63.429 V 26.571 C 4 14.125 14.125 4 26.571 4 H 63.429 M 62.041 26.103 C 57.526 22.027 51.548 19.542 45 19.542 c -14.038 0 -25.458 11.42 -25.458 25.458 c 0 14.038 11.42 25.458 25.458 25.458 S 70.458 59.038 70.458 45 c 0 -6.537 -2.477 -12.508 -6.542 -17.021 c 1.438 1.057 3.213 1.682 5.131 1.682 c 4.788 0 8.683 -3.895 8.683 -8.683 c 0 -4.788 -3.895 -8.683 -8.683 -8.683 c -4.788 0 -8.683 3.895 -8.683 8.683 C 60.365 22.893 60.988 24.665 62.041 26.103 M 63.429 0 H 26.571 C 11.896 0 0 11.896 0 26.571 v 36.858 C 0 78.104 11.896 90 26.571 90 h 36.858 C 78.104 90 90 78.104 90 63.429 V 26.571 C 90 11.896 78.104 0 63.429 0 L 63.429 0 z M 69.047 25.662 c -2.586 0 -4.683 -2.097 -4.683 -4.683 c 0 -2.586 2.097 -4.683 4.683 -4.683 c 2.586 0 4.683 2.097 4.683 4.683 C 73.73 23.565 71.634 25.662 69.047 25.662 L 69.047 25.662 z M 45 66.458 c -11.851 0 -21.458 -9.607 -21.458 -21.458 c 0 -11.851 9.607 -21.458 21.458 -21.458 S 66.458 33.149 66.458 45 C 66.458 56.851 56.851 66.458 45 66.458 L 45 66.458 z" style="stroke: none; stroke-width: 1; stroke-dasharray: none; stroke-linecap: butt; stroke-linejoin: miter; stroke-miterlimit: 10; fill: rgb(0,0,0); fill-rule: nonzero; opacity: 1;" transform=" matrix(1 0 0 1 0 0) " stroke-linecap="round" />
</g>
</svg>